<svg width="126" height="19" viewBox="0 0 126 19" fill="none" xmlns="http://www.w3.org/2000/svg">
<path d="M13.925 6.1C13.925 7.11667 13.6917 8.05 13.225 8.9C12.7583 9.73333 12.0417 10.4083 11.075 10.925C10.1083 11.4417 8.90833 11.7 7.475 11.7H4.825V18H0.55V0.449999H7.475C8.875 0.449999 10.0583 0.691666 11.025 1.175C11.9917 1.65833 12.7167 2.325 13.2 3.175C13.6833 4.025 13.925 5 13.925 6.1ZM7.15 8.3C7.96667 8.3 8.575 8.10833 8.975 7.725C9.375 7.34167 9.575 6.8 9.575 6.1C9.575 5.4 9.375 4.85833 8.975 4.475C8.575 4.09167 7.96667 3.9 7.15 3.9H4.825V8.3H7.15ZM31.3506 0.449999V18H27.0756V10.775H20.4256V18H16.1506V0.449999H20.4256V7.325H27.0756V0.449999H31.3506ZM45.3617 14.9H38.8117L37.7617 18H33.2867L39.6367 0.449999H44.5867L50.9367 18H46.4117L45.3617 14.9ZM44.2617 11.6L42.0867 5.175L39.9367 11.6H44.2617ZM68.5693 18H64.2943L57.1443 7.175V18H52.8693V0.449999H57.1443L64.2943 11.325V0.449999H68.5693V18ZM84.2932 0.449999V3.875H79.6432V18H75.3682V3.875H70.7182V0.449999H84.2932ZM94.7387 18.175C93.0887 18.175 91.572 17.7917 90.1887 17.025C88.822 16.2583 87.7303 15.1917 86.9137 13.825C86.1137 12.4417 85.7137 10.8917 85.7137 9.175C85.7137 7.45833 86.1137 5.91667 86.9137 4.55C87.7303 3.18333 88.822 2.11667 90.1887 1.35C91.572 0.583333 93.0887 0.2 94.7387 0.2C96.3887 0.2 97.897 0.583333 99.2637 1.35C100.647 2.11667 101.73 3.18333 102.514 4.55C103.314 5.91667 103.714 7.45833 103.714 9.175C103.714 10.8917 103.314 12.4417 102.514 13.825C101.714 15.1917 100.63 16.2583 99.2637 17.025C97.897 17.7917 96.3887 18.175 94.7387 18.175ZM94.7387 14.275C96.1387 14.275 97.2553 13.8083 98.0887 12.875C98.9387 11.9417 99.3637 10.7083 99.3637 9.175C99.3637 7.625 98.9387 6.39167 98.0887 5.475C97.2553 4.54167 96.1387 4.075 94.7387 4.075C93.322 4.075 92.1887 4.53333 91.3387 5.45C90.5053 6.36667 90.0887 7.60833 90.0887 9.175C90.0887 10.725 90.5053 11.9667 91.3387 12.9C92.1887 13.8167 93.322 14.275 94.7387 14.275ZM125.967 0.449999V18H121.692V7.475L117.767 18H114.317L110.367 7.45V18H106.092V0.449999H111.142L116.067 12.6L120.942 0.449999H125.967Z" fill="url(#paint0_linear_1_103)"/>
<defs>
<linearGradient id="paint0_linear_1_103" x1="108.65" y1="-10" x2="98.0699" y2="43.21" gradientUnits="userSpaceOnUse">
<stop stop-color="#B75CFF"/>
<stop offset="1" stop-color="#671AE4"/>
</linearGradient>
</defs>
</svg>
